<svg width="34" height="34" viewBox="0 0 34 34" fill="none" xmlns="http://www.w3.org/2000/svg">
<g clip-path="url(#clip0_400_7648)">
<path d="M31.8941 11.6594C33.0573 11.6594 34.0003 10.7163 34.0003 9.5531V2.10628C34.0003 0.943052 33.0573 0 31.8941 0H24.4472C23.284 0 22.341 0.943052 22.341 2.10628C22.341 3.26951 23.284 4.21256 24.4472 4.21256H26.8092L18.49 12.5319C17.6674 13.3544 17.6674 14.6881 18.49 15.5106C18.9013 15.9219 19.4403 16.1276 19.9793 16.1276C20.5183 16.1276 21.0574 15.9219 21.4685 15.5106L29.7876 7.19154V9.5531C29.7878 10.7163 30.7308 11.6594 31.8941 11.6594Z" fill="black"/>
<path d="M15.5106 18.4895C14.6882 17.6669 13.3547 17.6669 12.5319 18.4895L4.21256 26.8089V24.447C4.21256 23.2838 3.26951 22.3408 2.10628 22.3408C0.943052 22.3408 0 23.2838 0 24.447V31.8937C0 33.0569 0.942912 34 2.10628 34L9.5531 34.0001C10.7162 34.0001 11.6594 33.0571 11.6594 31.8939C11.6594 30.7306 10.7165 29.7876 9.5531 29.7876H7.19126L15.5106 21.4682C16.3332 20.6456 16.3332 19.3119 15.5106 18.4895Z" fill="black"/>
</g>
<defs>
<clipPath id="clip0_400_7648">
<rect width="34" height="34" fill="white"/>
</clipPath>
</defs>
</svg>
